<svg id="_1-Email" data-name="1-Email" xmlns="http://www.w3.org/2000/svg" width="48" height="48" viewBox="0 0 48 48"><defs><style>.cls-1{fill:#f6b445;}.cls-2{fill:#fed049;}.cls-3{fill:none;stroke:#474c54;stroke-linecap:round;stroke-linejoin:round;stroke-width:2px;}</style></defs><title>1-Email</title><g id="_Group_" data-name="&lt;Group&gt;"><path class="cls-1" d="M47,9V37a4.025,4.025,0,0,1-1.17,2.83L28,22l-.28-.43Z"/><path class="cls-2" d="M45.83,39.83A4.025,4.025,0,0,1,43,41H5a4.025,4.025,0,0,1-2.83-1.17L20,22l.25-.39L24,24l3.72-2.43L28,22Z"/><path class="cls-1" d="M20.25,21.61,20,22,2.17,39.83A4.025,4.025,0,0,1,1,37V11a3.944,3.944,0,0,1,.18-1.19L2,10Z"/><path class="cls-2" d="M47,9,27.72,21.57,24,24l-3.75-2.39L2,10l-.82-.19A4,4,0,0,1,5,7H42C46,7,47,9,47,9Z"/><path class="cls-3" d="M42,7H5A4,4,0,0,0,1.18,9.81,3.944,3.944,0,0,0,1,11V37a3.995,3.995,0,0,0,4,4H43a3.995,3.995,0,0,0,4-4V9L27.72,21.57,24,24l-3.75-2.39L2,10"/></g><line class="cls-3" x1="39" y1="33" x2="28" y2="22"/><line class="cls-3" x1="9" y1="33" x2="20" y2="22"/></svg>